<svg width="80" height="97" viewBox="0 0 80 97" fill="none" xmlns="http://www.w3.org/2000/svg">
<path fill-rule="evenodd" clip-rule="evenodd" d="M18 10C18 4.47715 22.4772 0 28 0H53C58.5228 0 63 4.47715 63 10V55.4875L74.5541 54.4765C77.4818 54.2203 80 56.5278 80 59.4667C80 62.0402 78.0499 64.195 75.4892 64.4511L60 66L40 67L20 66L4.51081 64.4511C1.95008 64.195 0 62.0402 0 59.4667C0 56.5278 2.51822 54.2203 5.44589 54.4765L18 55.575V10ZM39.25 84.4982C39.4453 84.6109 39.6119 84.7484 39.75 84.9034C39.8881 84.7484 40.0547 84.6109 40.25 84.4982L54.5 76.2709C55.8333 75.5011 57.5 76.4634 57.5 78.003V94.4575C57.5 95.9971 55.8333 96.9593 54.5 96.1895L40.25 87.9623C40.0547 87.8495 39.8881 87.712 39.75 87.557C39.6119 87.712 39.4453 87.8495 39.25 87.9623L25 96.1895C23.6667 96.9593 22 95.9971 22 94.4575V78.003C22 76.4634 23.6667 75.5011 25 76.2709L39.25 84.4982Z" fill="#4A4A4A"/>
</svg>
