<svg width="150" height="150" viewBox="0 0 150 150" fill="none" xmlns="http://www.w3.org/2000/svg">
<circle cx="75" cy="75" r="72.5" fill="white" stroke="#4A4A4A" stroke-width="5"/>
<path fill-rule="evenodd" clip-rule="evenodd" d="M53 35C53 29.4772 57.4772 25 63 25H88C93.5229 25 98 29.4772 98 35V80.4875L109.554 79.4765C112.482 79.2203 115 81.5278 115 84.4667C115 87.0402 113.05 89.195 110.489 89.4511L95 91L75 92L55 91L39.5108 89.4511C36.9501 89.195 35 87.0402 35 84.4667C35 81.5278 37.5182 79.2203 40.4459 79.4765L53 80.575V35ZM74.25 109.498C74.4453 109.611 74.6119 109.748 74.75 109.903C74.8881 109.748 75.0547 109.611 75.25 109.498L89.5 101.271C90.8333 100.501 92.5 101.463 92.5 103.003V119.457C92.5 120.997 90.8333 121.959 89.5 121.19L75.25 112.962C75.0547 112.85 74.8881 112.712 74.75 112.557C74.6119 112.712 74.4453 112.85 74.25 112.962L60 121.19C58.6667 121.959 57 120.997 57 119.457V103.003C57 101.463 58.6667 100.501 60 101.271L74.25 109.498Z" fill="#4A4A4A"/>
</svg>
